<svg version="1" xmlns="http://www.w3.org/2000/svg" width="648" height="648" viewBox="0 0 486.000000 486.000000"><path d="M0 243v162h486V81H0v162zm95.8-33.4c1.6.5 2.2 1.3 2 2.7-.3 1.9-1 2.1-8.1 2.2-7.6 0-8 .1-10.7 3.2-5.1 5.7-5.2 14.8-.1 20.5 2.4 2.7 3.4 3.1 8.2 3.2 3 .1 6.5-.1 7.9-.4 2.1-.4 2.5-.1 2.8 2.1.3 2.3-.1 2.7-3.5 3.2-16.5 2.8-27.4-2-30.7-13.4-1.5-5-1.5-5.9-.1-9.9.9-2.4 2.3-5.3 3.3-6.3 2.1-2.4 8.1-6.3 10.8-7 2.8-.7 15.6-.8 18.2-.1zm182.5 3.1c.8 2.1 2.9 7.2 4.5 11.3 1.6 4.1 3.3 7.5 3.8 7.5 1-.1 5.2-8.2 5.4-10.5 0-.8.9-3.3 2-5.5s1.9-4.6 2-5.3c0-.8 2.3-1.2 8-1.2h8l-.2 18.6-.3 18.7h-11l-.2-12.4c0-6.8-.2-13.2-.2-14.2-.2-2.7-2-2-2.7 1-.4 1.6-1 3.2-1.3 3.8-.4.5-2 4.4-3.5 8.5-5.5 14.5-6.1 15.3-9.3 13.2-.7-.4-3-5.5-5.3-11.2-8.5-21.9-9-22-9-2.6v14.4l-3.2-.3-3.3-.2-.3-18.7-.2-18.6h14.7l1.6 3.7zm-149.6 7.1c10.1 3.1 12.2 17.9 3.3 23.8-7.1 4.7-19.9 4.3-26.4-.9-5.4-4.4-4.7-16.4 1.3-20.4 3.8-2.6 5.9-3.1 13.1-3.1 3.6 0 7.5.3 8.7.6zm24.9 2.9c.9 2 1.8 6.1 2.1 9 .3 2.9 1 5.3 1.5 5.3 1.2 0 7.3-9.9 8.7-14.3 1-2.9 1.8-3.7 3.7-3.7 3.2 0 3.1 2.2-.2 8.5-5.6 10.5-13.6 18.7-18.5 19-2.7.2-2.9-.1-2.9-3.2 0-4.3-3.7-18-5.5-20.7-2.3-3.2-1.9-3.6 4.1-3.6 5.4 0 5.5.1 7 3.7zm50.5-1.1c2.7 2.4 4.9 6.7 4.9 9.4 0 1.9-.6 2-10.9 2-6.1 0-11.3.4-11.6 1-1.1 1.7 2.3 6.7 5.4 8 2.9 1.2 4.8 1.1 11.2-.5 2.1-.6 2.7-.3 3.2 1.4.7 2.8-2.3 3.6-12.9 3.6-7.1 0-8.5-.3-12.2-2.7-5.2-3.5-7.1-8.8-5.4-14.6 1.3-4.2 3-6.1 7.7-8.7 4.3-2.3 17.6-1.6 20.6 1.1zm19.9.3c0 5.3 2.6 5 5.9-.7.4-.7 2.6-1.6 4.7-1.9l4-.5-.4 3.6c-.4 3.3-.7 3.6-3.6 3.6-6.1.1-9.6 5.4-9.6 14.8v5.7h-10V219h4.5c4.3 0 4.5.1 4.5 2.9zm122.6-1.3c5.4 2.6 7.4 5.8 7.4 12 0 10-7.6 15.2-20.9 14.1-7.4-.6-10.7-2.6-13.4-8-3.4-6.7-.5-14.6 6.5-18 4.4-2.2 15.9-2.2 20.4-.1zm23.4 1.3c0 3.1 1.7 5.1 2.9 3.4 3.3-4.8 4.2-5.5 8.2-6 3.7-.5 4.2-.4 3.6 1.1-.4 1-.7 2.6-.7 3.7 0 1.5-.7 1.9-3 1.9-6.7 0-10 4.9-10 14.9v5.6h-10V219h4.5c4.3 0 4.5.1 4.5 2.9zm43.5-1.3c3.9 1.8 5.9 4.5 6.9 9.2l.8 3.2h-11.1c-6 0-11.2.4-11.5.9-1.1 1.8 1.3 6 4.3 7.6 3.6 1.8 7.1 1.9 10.6.3 2.2-1 2.8-.9 3.6.3.5.8.9 1.7.9 2.1 0 1.1-7 2.8-11.5 2.8-8.2 0-11.7-1.2-15.7-5.2-3.4-3.4-3.8-4.3-3.8-8.9 0-4.6.4-5.5 3.8-8.9 2-2.1 4.6-4 5.7-4.3 4.5-1.1 13.8-.6 17 .9zm-161 5c2.9 1.9 3.3 5.9.8 8.6-2.3 2.6-7.8 2.4-9.7-.4-2.2-3.1-2-4.5.9-7.3 2.8-2.9 4.6-3.1 8-.9z"/><path d="M115.1 224.4c-1.9 2-2.2 3.2-1.9 9.1.3 6.1.6 7 3 8.8 2.3 1.7 3.1 1.9 5.3.9 5.6-2.6 7.1-13.8 2.4-18.8-2.9-3-5.9-3.1-8.8 0zM188.9 224.1c-3.5 3.5-2.2 5.4 4.4 5.7 6.8.4 8.4-1.4 4.7-5.4-2.9-2.9-6.3-3.1-9.1-.3zM331.9 224.6c-2 2.1-2.4 3.6-2.4 8.6.1 5.3.4 6.3 2.8 8.4 3.4 2.9 4.8 3 7.8.5 1.9-1.5 2.4-3 2.7-8.2.3-5.4.1-6.8-1.8-9.2-2.7-3.4-5.9-3.5-9.1-.1zM400.7 223.8c-1 1-1.7 2.8-1.7 4 0 2 .5 2.2 6 2.2 5.6 0 6-.1 6-2.3 0-5-7-7.6-10.3-3.9z"/></svg>