<?xml version="1.0" standalone="no"?>
<!DOCTYPE svg PUBLIC "-//W3C//DTD SVG 1.1//EN" "http://www.w3.org/Graphics/SVG/1.1/DTD/svg11.dtd" >
<svg xmlns="http://www.w3.org/2000/svg">
<metadata>Generated by IcoMoon</metadata>
<defs>
<font id="icomoon" horiz-adv-x="1024">
<font-face units-per-em="1024" ascent="960" descent="-64" />
<missing-glyph horiz-adv-x="1024" />
<glyph unicode="&#x20;" horiz-adv-x="512" d="" />
<glyph unicode="&#xe900;" glyph-name="facebook" d="M777.883 768.69l-96.391-0.043c-75.576 0-90.208-35.915-90.208-88.622v-116.216h180.246l-0.064-182.034h-180.182v-467.109h-188.003v467.109h-157.175v182.034h157.175v134.232c0 155.792 95.167 240.626 234.145 240.626l140.468-0.223-0.011-169.753z" />
<glyph unicode="&#xe901;" glyph-name="lock" d="M885.452 408.003c-12.725 12.448-28.166 18.662-46.348 18.662h-501.569v213.331c0 47.119 17.041 87.336 51.117 120.671 34.079 33.328 75.192 49.996 123.354 49.996 48.157 0 89.277-16.665 123.342-49.996 34.079-33.335 51.119-73.555 51.119-120.671 0-11.552 4.313-21.55 12.937-29.994 8.643-8.446 18.869-12.67 30.665-12.67h43.636c11.804 0 22.025 4.224 30.668 12.67 8.607 8.444 12.937 18.442 12.937 29.994 0 82.232-29.873 152.552-89.609 211.001-59.746 58.451-131.648 87.67-215.696 87.67-84.055 0-155.95-29.219-215.701-87.668-59.741-58.442-89.612-128.769-89.612-211.001v-213.331h-21.805c-18.167 0-33.618-6.228-46.341-18.662s-19.081-27.554-19.081-45.333v-384.006c0-17.786 6.361-32.899 19.081-45.34 12.723-12.434 28.173-18.659 46.341-18.659h654.215c18.182 0 33.637 6.225 46.348 18.659 12.711 12.441 19.081 27.554 19.081 45.34v384.004c0.010 17.779-6.354 32.882-19.081 45.333z" />
<glyph unicode="&#xe902;" glyph-name="right-arrow" d="M679.229 777.863c-13.626 14.326-36.304 14.326-50.406 0-13.626-13.842-13.626-36.879 0-50.689l255.589-259.639h-843.409c-19.661-0.032-35.288-15.907-35.288-35.879s15.627-36.363 35.288-36.363h843.409l-255.589-259.155c-13.626-14.326-13.626-37.395 0-51.205 14.102-14.326 36.812-14.326 50.406 0l316.096 321.104c14.102 13.842 14.102 36.879 0 50.689l-316.096 321.137z" />
<glyph unicode="&#xe903;" glyph-name="user" d="M822.457 206.695l-164.639 81.51c-15.528 7.697-25.179 23.159-25.179 40.363v57.702c3.947 4.779 8.1 10.223 12.391 16.23 21.353 29.867 38.467 63.113 50.91 98.97 24.317 11.042 40.104 34.85 40.104 61.73v68.267c0 16.435-6.204 32.358-17.234 44.8v90.778c0.965 9.387 4.757 65.263-36.054 111.36-35.399 39.987-92.841 60.262-170.757 60.262s-135.358-20.275-170.757-60.245c-40.811-46.097-37.019-101.99-36.054-111.377v-90.778c-11.030-12.442-17.234-28.365-17.234-44.8v-68.267c0-20.77 9.531-40.141 25.8-53.060 15.787-61.901 48.825-108.544 60.371-123.511v-56.474c0-16.521-9.1-31.676-23.732-39.595l-153.746-83.046c-49.996-27.017-81.035-78.797-81.035-135.185v-55.262c0-80.998 259.289-102.4 396.387-102.4s396.387 21.402 396.387 102.4v51.934c0 58.675-32.935 111.445-85.93 137.694z" />
<glyph unicode="&#xe904;" glyph-name="view" d="M511.513 657.337c-122.534 0-222.23-99.696-222.23-222.23s99.696-222.23 222.23-222.23c122.534 0 222.23 99.696 222.23 222.23s-99.679 222.23-222.23 222.23zM511.513 247.066c-103.679 0-188.041 84.362-188.041 188.041s84.362 188.041 188.041 188.041c103.679 0 188.041-84.362 188.041-188.041s-84.345-188.041-188.041-188.041zM878.876 572.018c-203.238 203.238-533.899 203.238-737.136 0l-135.748-135.731 139.116-139.116c101.61-101.61 235.085-152.433 368.577-152.433s266.949 50.805 368.577 152.433l135.748 135.748-139.133 139.099zM858.072 321.342c-189.904-189.887-498.889-189.887-688.793 0l-114.944 114.944 111.576 111.576c189.904 189.887 498.889 189.887 688.793 0l114.944-114.944-111.576-111.576zM494.418 571.864c-65.985 0-119.662-53.677-119.662-119.662 0-9.436 7.658-17.095 17.095-17.095s17.095 7.658 17.095 17.095c0 47.13 38.343 85.473 85.473 85.473 9.436 0 17.095 7.658 17.095 17.095s-7.641 17.095-17.095 17.095z" />
<glyph unicode="&#xe905;" glyph-name="bonuses" d="M931.585 559.347c15.832 51.643-19.277 136.407-90.648 207.79s-156.147 106.469-207.79 90.623l-80.883 80.907-552.258-552.262 80.895-80.907c-15.832-51.632 19.255-136.409 90.623-207.79 71.367-71.383 156.147-106.469 207.79-90.623l80.921-80.919 552.262 552.271-80.911 80.909zM607.967 291.476l-19.182 19.172c-4.673-3.125-9.457-5.964-14.426-8.26-12.152-5.67-25.17-8.768-38.165-8.768-21.433-0.142-42.389 8.806-57.548 24.154l41.833 41.857c5.195-5.005 9.728-6.708 15.716-6.84 3.656 0 8.023 0.829 13.17 3.229 5.148 2.403 11.076 6.403 17.216 12.555v-0.024c7.954 7.93 14.058 15.763 17.729 22.402 3.74 6.674 4.922 11.786 4.898 15.182-0.024 2.177-0.342 3.894-1.315 6.14-0.993 2.213-2.745 5.029-6.237 8.533-3.763 3.751-6.674 5.513-8.946 6.508-2.284 0.969-4.119 1.315-6.639 1.337-3.030 0.024-7.254-0.722-12.591-2.699-5.337-1.942-11.644-5.064-18.508-8.935-13.821-7.716-29.313-18.425-47.263-26.849-12-5.513-25.585-10.307-41.536-10.39-8.946-0.024-18.508 1.728-27.525 5.61-9.041 3.858-17.337 9.716-24.614 17.005-6.817 6.817-12.733 15.136-17.1 24.945-4.343 9.785-7.076 21.11-7.076 33.288 0 11.857 2.638 24.401 8.177 36.543 2.379 5.242 5.385 10.378 8.806 15.445l-18.721 18.721 41.833 41.819 19.467-19.477c3.906 2.519 7.833 4.863 11.857 6.864 13.313 6.662 27.43 10.378 41.536 10.366 10.602 0.012 21.1-2.142 30.674-6.273 9.573-4.119 18.14-10.117 25.396-17.406l-41.857-41.809c-2.45 2.426-4.711 3.917-6.933 4.877-2.237 0.947-4.438 1.432-7.279 1.444-3.704 0-8.685-0.947-15.16-4.167-6.472-3.206-14.284-8.723-22.839-17.278-6.817-6.817-10.698-12.779-12.921-17.632-2.201-4.886-2.842-8.685-2.863-12.045 0.024-3.419 0.746-6.449 1.987-9.29 1.242-2.792 3.077-5.337 4.829-7.099 2.769-2.745 4.711-3.858 6.107-4.461 1.408-0.581 2.45-0.793 4.226-0.817 2.308-0.024 6.107 0.627 11.207 2.579 5.064 1.918 11.278 5.064 18.093 8.968 13.752 7.788 29.539 18.638 48.056 27.065 12.344 5.539 26.414 10.19 42.555 10.236 9.822 0.036 20.272-1.893 30.165-6.213 9.892-4.271 19.065-10.768 27.231-18.957 7.88-7.833 14.213-16.708 18.508-26.388 4.295-9.656 6.425-20.058 6.403-30.116-0.024-16.247-5.159-31.065-12.391-44.034-1.776-3.17-3.704-6.237-5.729-9.255l19.526-19.514-41.835-41.845z" />
<glyph unicode="&#xe906;" glyph-name="cross" d="M1021.196 819.251l-100.198 100.198-400.791-400.791-400.791 400.791-100.198-100.198 400.791-400.791-400.791-400.791 100.198-100.198 400.791 400.791 400.791-400.791 100.198 100.198-400.791 400.791z" />
<glyph unicode="&#xe907;" glyph-name="filter" d="M1015.569 891.715c-6.020 14.531-20.201 24.007-35.929 24.007h-917.803c-15.729 0-29.91-9.476-35.931-24.007-6.020-14.533-2.693-31.26 8.429-42.382l352.303-352.303v-538.003c0-15.729 9.476-29.91 24.009-35.931 14.537-6.020 31.264-2.689 42.382 8.429l190.417 190.415c7.292 7.292 11.389 17.186 11.389 27.499v347.59l352.303 352.303c11.123 11.123 14.45 27.849 8.429 42.382zM588.445 540.637c-7.292-7.292-11.389-17.186-11.389-27.499v-347.586l-112.637-112.635v460.221c0 10.314-4.097 20.207-11.389 27.499l-297.305 297.305h730.027l-297.307-297.305z" />
<glyph unicode="&#xe908;" glyph-name="location" horiz-adv-x="720" d="M609.795 834.040c-67.466 67.466-157.173 104.627-252.58 104.627-95.425 0-185.114-37.161-252.58-104.627-124.856-124.837-140.372-359.722-33.603-502.031l286.183-413.292 285.754 412.715c107.197 142.886 91.681 377.771-33.174 502.608zM360.512 454.369c-71.881 0-130.388 58.507-130.388 130.388s58.507 130.388 130.388 130.388c71.881 0 130.388-58.507 130.388-130.388s-58.507-130.388-130.388-130.388z" />
<glyph unicode="&#xe909;" glyph-name="menu" horiz-adv-x="1195" d="M85.312 798.242h1038.779c37.643 0 68.123 31.043 68.123 69.44 0 38.301-30.481 69.456-68.123 69.456h-1038.779c-37.643 0-68.123-31.155-68.123-69.456 0-38.414 30.481-69.44 68.123-69.44zM1124.091 511.841h-1038.779c-37.643 0-68.123-31.171-68.123-69.456 0-38.43 30.481-69.456 68.123-69.456h1038.779c37.643 0 68.123 31.043 68.123 69.456 0 38.285-30.481 69.456-68.123 69.456zM1124.091 86.543h-1038.779c-37.643 0-68.123-31.171-68.123-69.456 0-38.43 30.481-69.456 68.123-69.456h1038.779c37.643 0 68.123 31.075 68.123 69.456 0 38.285-30.481 69.456-68.123 69.456z" />
<glyph unicode="&#xe90a;" glyph-name="cart" horiz-adv-x="1106" d="M1066.222 762.097c-19.586 23.864-49.304 37.147-80.147 37.147h-669.315c-19.136 0-37.372-5.403-53.131-15.084l-34.22 119.545c-5.628 19.586-23.414 33.094-43.675 33.094h-151.288c-18.911 0-34.445-15.309-34.445-34.445v-3.602c0-18.911 15.309-34.445 34.445-34.445h130.126l66.414-234.812 91.403-323.964c-52.005-13.058-90.503-60.11-90.503-115.943 0-63.262 49.304-115.267 111.665-119.32-5.178-14.859-7.654-31.293-6.304-48.178 4.503-57.183 51.105-103.335 108.288-107.163 68.215-4.728 125.173 49.529 125.173 116.618 0 13.508-2.251 26.34-6.529 38.497h136.88c-5.628-15.984-7.88-33.77-5.853-52.005 6.304-55.382 52.005-99.058 107.838-103.11 68.215-4.728 125.398 49.304 125.398 116.618 0 65.063-54.032 117.068-118.869 117.068h-457.242c-22.288 0-41.199 17.335-42.1 39.398-0.901 23.414 17.785 42.55 40.974 42.55h545.493c46.377 0 86.901 31.744 98.157 76.77l90.953 366.064c7.88 31.518 0.675 63.712-19.586 88.702zM811.598 70.268c21.162 0 38.497-17.335 38.497-38.497s-17.335-38.497-38.497-38.497c-21.162 0-38.497 17.335-38.497 38.497s17.11 38.497 38.497 38.497zM453.865 70.268c21.162 0 38.497-17.335 38.497-38.497s-17.335-38.497-38.497-38.497c-21.162 0-38.497 17.335-38.497 38.497s17.11 38.497 38.497 38.497zM312.482 629.944l-17.56 61.911c-2.702 9.456 1.126 16.435 3.827 19.812 2.476 3.377 8.33 9.005 18.011 9.005h73.393l20.037-90.953h-97.707v0.225zM334.545 551.599h92.754l18.461-84.199h-87.576l-23.639 84.199zM419.87 309.357c-10.131 0-19.136 6.754-21.838 16.66l-17.785 63.037h82.623l17.56-79.471h-60.56v-0.225zM615.959 309.357h-55.382l-17.56 79.471h72.717v-79.471h0.225zM615.959 467.4h-90.053l-18.461 84.199h108.513v-84.199zM615.959 629.944h-125.623l-20.037 90.953h145.66v-90.953zM756.441 309.357h-61.911v79.471h78.571l-16.66-79.471zM789.761 467.4h-95.231v84.199h113.016l-17.785-84.199zM694.53 629.944v90.953h148.587l-19.136-90.953h-129.451zM918.986 326.467c-2.476-10.131-11.482-17.335-22.063-17.335h-60.335l16.885 79.471h81.047l-15.534-62.136zM953.881 467.4h-83.974l17.785 84.199h87.126l-20.937-84.199zM1009.714 692.756l-15.534-62.587h-90.053l19.136 90.953h64.388c9.681 0 15.309-5.403 17.785-8.78 2.702-3.377 6.754-10.356 4.277-19.586z" />
<glyph unicode="&#xe90b;" glyph-name="back-arrow" horiz-adv-x="602" d="M26.784 464.29l437.523 437.515c10.119 10.127 23.628 15.707 38.032 15.707s27.912-5.579 38.032-15.707l32.221-32.213c20.966-20.99 20.966-55.105 0-76.063l-367.398-367.398 367.806-367.806c10.119-10.127 15.707-23.628 15.707-38.024 0-14.412-5.587-27.912-15.707-38.048l-32.221-32.205c-10.127-10.127-23.628-15.707-38.032-15.707s-27.912 5.579-38.032 15.707l-437.93 437.914c-10.143 10.159-15.715 23.724-15.683 38.143-0.032 14.476 5.539 28.032 15.683 38.183z" />
<glyph unicode="&#xe90c;" glyph-name="badge" horiz-adv-x="844" d="M547.134 278.409c19.050 31.836 47.059 48.146 84.201 48.581s55.888 19.354 56.497 56.584c0.522 37.056 16.658 65.065 48.494 84.027 31.923 19.050 38.839 44.667 20.659 77.112-18.093 32.358-18.093 64.717 0 97.162 18.18 32.358 11.308 57.932-20.659 76.982-31.836 19.093-48.016 47.059-48.494 84.288-0.609 37.056-19.354 55.975-56.497 56.41-37.143 0.522-65.152 16.745-84.201 48.581-19.050 31.923-44.667 38.839-77.025 20.659-32.358-18.093-64.804-18.093-97.162 0-32.402 18.136-58.019 11.265-77.069-20.659-19.006-31.88-47.059-48.103-84.158-48.581-37.056-0.435-55.888-19.354-56.41-56.41-0.609-37.229-16.745-65.152-48.581-84.288-31.923-19.050-38.926-44.58-20.659-76.982 18.18-32.445 18.18-64.804 0-97.162-18.267-32.445-11.308-58.106 20.659-77.112 31.836-18.963 48.016-46.972 48.581-84.027 0.522-37.186 19.354-56.149 56.41-56.584 37.143-0.435 65.152-16.745 84.201-48.581 19.050-31.923 44.667-38.839 77.025-20.572 32.358 17.919 64.804 17.919 97.162 0 32.358-18.223 58.019-11.352 77.025 20.572zM421.615 390.054c-112.297 0-203.283 90.986-203.283 203.283 0 112.21 90.986 203.196 203.283 203.196 112.21 0 203.196-90.986 203.196-203.196 0-112.297-90.986-203.283-203.196-203.283zM208.459 297.198c-39.056 0-44.275 18.18-44.275 18.18l-152.528-299.793 122.301 13.744 67.631-101.772c0 0 140.915 294.009 140.915 292.051-73.024 1.827-43.971 75.633-134.044 77.59zM676.872 303.634c-111.428-11.656-88.768-39.317-114.255-60.802-29.314-31.271-65.934-25.139-65.934-25.139l172.012-295.966 42.318 109.601 120.3-15.701-154.442 288.007zM464.064 638.178l-42.536 86.115-42.579-86.115-95.205-13.918 68.805-67.109-16.223-94.9 85.202 44.754 85.202-44.754-16.223 94.9 68.805 67.109z" />
<glyph unicode="&#xe90d;" glyph-name="bell" d="M885.605 226.77c-14.303 11.067-29.042 52.091-37.998 110.267-7.856 51.032-10.461 103.388-10.337 140.094l0.002 126.022c0 184.992-149.988 335.514-334.76 335.514s-334.762-150.521-334.762-335.516v-125.536c0.014-9.48-0.324-25.252-1.357-45.226-1.689-32.645-4.747-65.163-9.47-95.223-9.15-58.225-24.009-99.299-38.432-110.465-32.339-24.895-23.522-78.005 18.883-87.518 0.794-0.178 1.587-0.333 2.379-0.465 0.071-0.012 0.139-0.018 0.208-0.029 51.407-10.763 103.12-19.215 154.989-25.354 14.346-101.57 101.617-179.71 207.144-179.71 105.501 0 192.758 78.105 207.134 179.64 52.031 6.157 103.818 14.635 155.205 25.456 0.792 0.131 1.585 0.286 2.381 0.465 42.402 9.511 51.219 62.621 18.791 87.585zM502.092 17.316c-56.209 0-103.792 36.953-119.788 87.887 79.862-5.457 159.893-5.469 239.557-0.057-16.012-50.905-63.58-87.83-119.769-87.83zM669.203 193.060c-1.526 0.018-3.070-0.041-4.627-0.194-108.065-10.533-216.904-10.533-324.969 0-1.561 0.153-3.111 0.212-4.643 0.192-42.429 4.249-84.725 10.112-126.781 17.606 14.34 29.577 24.217 67.717 31.413 113.51 8.966 57.058 11.9 113.761 11.842 153.434v125.543c0 138.84 112.584 251.824 251.071 251.824s251.071-112.984 251.071-251.824v-125.536c-0.139-40.895 2.658-97.116 11.308-153.312 7.057-45.848 16.841-84.034 31.133-113.633-42.068-7.495-84.376-13.36-126.818-17.61zM953.557 643.898c-14.531 17.971-40.878 20.76-58.849 6.23s-20.76-40.878-6.23-58.849c20.933-25.89 32.498-57.984 32.498-91.986 0-33.983-11.592-66.122-32.539-92.029-14.531-17.971-11.742-44.318 6.23-58.849s44.318-11.742 58.849 6.23c32.875 40.66 51.15 91.325 51.15 144.648 0 53.335-18.242 103.957-51.109 144.605zM116.566 407.263c-20.933 25.89-32.498 57.984-32.498 91.986 0 33.983 11.592 66.122 32.539 92.029 14.531 17.971 11.742 44.318-6.23 58.849s-44.318 11.742-58.849-6.23c-32.875-40.66-51.15-91.325-51.15-144.648 0-53.335 18.244-103.957 51.109-144.605 14.531-17.971 40.878-20.76 58.849-6.23 17.969 14.531 20.758 40.878 6.23 58.849zM502.088 812.39c-115.42 0-209.227-93.805-209.227-209.227 0-23.11 18.734-41.845 41.845-41.845s41.845 18.734 41.845 41.845c0 69.2 56.336 125.536 125.536 125.536 23.11 0 41.845 18.734 41.845 41.845s-18.732 41.847-41.843 41.847z" />
<glyph unicode="&#xe90e;" glyph-name="search" d="M987.707 9.155l-242.101 251.797c62.248 73.998 96.355 167.103 96.355 264.028 0 226.458-184.245 410.703-410.703 410.703s-410.703-184.245-410.703-410.703c0-226.458 184.245-410.703 410.703-410.703 85.016 0 166.031 25.642 235.297 74.319l243.94-253.707c10.196-10.589 23.91-16.428 38.606-16.428 13.91 0 27.106 5.303 37.124 14.946 21.285 20.482 21.964 54.445 1.482 75.748zM431.258 828.543c167.388 0 303.563-136.175 303.563-303.563s-136.175-303.563-303.563-303.563c-167.388 0-303.563 136.175-303.563 303.563s136.175 303.563 303.563 303.563z" />
<glyph unicode="&#xe90f;" glyph-name="calendar" d="M126.37 780.703v126.372c0 17.464 14.128 31.592 31.597 31.592 17.46 0 31.588-14.128 31.588-31.592v-126.372c0-17.46-14.128-31.588-31.588-31.588-17.468-0.002-31.597 14.128-31.597 31.588zM663.443 749.113c17.456 0 31.592 14.128 31.592 31.588v126.374c0 17.464-14.137 31.592-31.592 31.592-17.464 0-31.603-14.128-31.603-31.592v-126.372c0-17.46 14.139-31.59 31.603-31.59zM1010.949 180.462c0-139.588-113.16-252.746-252.737-252.746-139.567 0-252.735 113.158-252.735 252.746 0 139.567 113.166 252.731 252.735 252.731 139.577 0 252.737-113.162 252.737-252.731zM947.772 180.462c0 104.511-85.028 189.55-189.559 189.55-104.522 0-189.55-85.037-189.55-189.55 0-104.532 85.028-189.559 189.55-189.559 104.53 0 189.559 85.026 189.559 189.559zM252.741 559.56h-126.372v-126.368h126.372v126.368zM126.37 243.638h126.372v126.374h-126.372v-126.374zM315.922 433.193h126.374v126.368h-126.374v-126.368zM315.922 243.638h126.374v126.374h-126.374v-126.374zM63.189 186.743v436.004h695.025v-126.372h63.187v246.441c0 38.381-30.611 69.483-68.429 69.483h-26.35v-31.599c0-34.797-28.328-63.183-63.176-63.183-34.859 0-63.185 28.386-63.185 63.183v31.599h-379.115v-31.599c0-34.797-28.321-63.183-63.176-63.183-34.864 0-63.187 28.386-63.187 63.183v31.599h-26.319c-37.82 0-68.46-31.103-68.46-69.483v-556.075c0-38.253 30.64-69.477 68.46-69.477h373.833v63.195h-373.833c-2.863 0.002-5.273 2.959-5.273 6.284zM631.84 433.193v126.368h-126.361v-126.368h126.361zM852.991 180.462h-94.779v94.779c0 17.454-14.128 31.582-31.592 31.582s-31.584-14.128-31.584-31.582v-126.382c0-17.456 14.12-31.592 31.584-31.592h126.372c17.464 0 31.592 14.137 31.592 31.592 0 17.464-14.128 31.603-31.592 31.603z" />
<glyph unicode="&#xe910;" glyph-name="checked" horiz-adv-x="1401" d="M16.168 375.545c-10.779 10.239-16.168 25.596-16.168 35.835s5.389 25.596 16.168 35.835l75.453 71.67c21.558 20.477 53.895 20.477 75.453 0l5.389-5.119 296.421-302.038c10.779-10.239 26.947-10.239 37.726 0l722.189 711.581h5.389c21.558 20.477 53.895 20.477 75.453 0l75.453-71.67c21.558-20.477 21.558-51.193 0-71.67v0l-862.316-849.802c-10.779-10.239-21.558-15.358-37.726-15.358s-26.947 5.119-37.726 15.358l-420.379 430.020-10.779 15.358z" />
<glyph unicode="&#xe911;" glyph-name="clock" d="M516.13 925.848c-277.526 0-503.311-225.786-503.311-503.311s225.786-503.311 503.311-503.311c277.526 0 503.311 225.786 503.311 503.311s-225.786 503.311-503.311 503.311zM516.13 26.322c-218.471 0-396.226 177.734-396.226 396.215s177.755 396.215 396.226 396.215c218.471 0 396.226-177.734 396.226-396.215s-177.755-396.215-396.226-396.215zM778.436 438.078h-226.19v271.962c0 22.886-18.556 41.442-41.442 41.442s-41.442-18.556-41.442-41.442v-313.404c0-22.886 18.556-41.442 41.442-41.442h267.632c22.886 0 41.442 18.556 41.442 41.442s-18.556 41.442-41.442 41.442z" />
<glyph unicode="&#xe912;" glyph-name="photo-camera" horiz-adv-x="1223" d="M1151.596 733.336c-30.568 30.562-67.44 45.847-110.641 45.847h-136.93l-31.17 83.13c-7.746 19.966-21.901 37.187-42.492 51.66-20.582 14.467-41.67 21.706-63.272 21.706h-312.988c-21.599 0-42.691-7.239-63.274-21.706-20.582-14.474-34.739-31.695-42.484-51.66l-31.174-83.13h-136.93c-43.205 0-80.079-15.285-110.648-45.847-30.562-30.564-45.843-67.442-45.843-110.643v-547.721c0-43.203 15.281-80.086 45.843-110.641 30.568-30.568 67.445-45.854 110.648-45.854h860.698c43.201 0 80.071 15.285 110.641 45.854 30.56 30.556 45.845 67.438 45.845 110.641v547.721c0.009 43.201-15.277 80.079-45.83 110.643zM804.066 155.351c-53.59-53.592-118.075-80.394-193.474-80.394s-139.88 26.802-193.474 80.394c-53.594 53.583-80.385 118.084-80.385 193.465 0 75.405 26.8 139.884 80.385 193.478 53.587 53.594 118.077 80.385 193.474 80.385s139.884-26.798 193.474-80.385c53.592-53.587 80.388-118.073 80.388-193.478 0-75.382-26.794-139.876-80.388-193.465zM610.592 524.883c-48.498 0-89.965-17.219-124.402-51.66-34.437-34.437-51.656-75.898-51.656-124.406 0-48.489 17.219-89.956 51.656-124.394 34.437-34.431 75.902-51.65 124.402-51.65 48.492 0 89.963 17.219 124.4 51.65 34.437 34.437 51.658 75.902 51.658 124.394 0 48.507-17.221 89.967-51.658 124.406-34.435 34.44-75.908 51.66-124.4 51.66z" />
<glyph unicode="&#xe913;" glyph-name="downarrow" horiz-adv-x="2048" d="M0 932.773l1001.962-1001.962 1001.962 1001.962z" />
<glyph unicode="&#xe914;" glyph-name="edit" d="M984.245 630.35l-45.151-45.172-270.931 270.893 45.151 45.177c49.876 49.882 130.757 49.882 180.637 0l90.294-90.317c49.809-49.855 49.809-130.702 0-180.58zM352.1 88.597c-12.468-12.468-12.468-32.662 0-45.132 12.475-12.538 32.679-12.538 45.147 0l496.704 496.567-45.202 45.177-496.649-496.612zM126.327 314.318c-12.475-12.479-12.475-32.664 0-45.141 12.468-12.471 32.672-12.471 45.147 0l496.689 496.605-45.132 45.147-496.704-496.612zM713.256 720.669l-496.645-496.635c-24.939-24.891-24.876-65.355 0-90.294 24.95-24.941 65.349-25.057 90.353 0.067l496.645 496.542-90.353 90.319zM306.835-1.566c-15.271 15.29-22.631 34.666-25.371 54.632-6.491-1.002-13.028-1.935-19.707-1.935-34.112 0-66.151 13.334-90.284 37.466-24.133 24.194-37.414 56.188-37.414 90.296 0 6.219 0.933 12.281 1.809 18.324-20.64 2.811-39.717 11.852-54.683 26.817-1.436 1.425-1.931 3.36-3.238 4.923l-77.948-311.886 311.075 77.872c-1.371 1.249-2.922 2.183-4.24 3.491z" />
<glyph unicode="&#xe915;" glyph-name="faq" horiz-adv-x="701" d="M332.003 938.667c175.601 0 348.482-80.872 348.482-274.312 0-178.385-204.414-246.987-248.315-311.445-32.958-47.947-21.95-115.319-112.502-115.319-58.987 0-87.8 47.979-87.8 91.88 0 163.363 240.027 200.335 240.027 334.852 0 74.041-49.274 117.941-131.636 117.941-175.601 0-107.031-181.040-240.027-181.040-48.012 0-89.225 28.814-89.225 83.656-0.032 134.55 153.586 253.786 320.996 253.786zM325.172 148.528c61.642 0 112.502-50.699 112.502-112.535s-50.764-112.535-112.502-112.535c-61.739 0-112.535 50.634-112.535 112.535 0 61.803 50.796 112.535 112.535 112.535z" />
<glyph unicode="&#xe916;" glyph-name="home" horiz-adv-x="1149" d="M154.079-41.743c0 0-1.007-25.33 23.737-25.33 30.782 0 285.638 0.336 285.638 0.336l0.419 234.054c0 0-4.026 38.583 33.424 38.583h118.516c44.286 0 41.56-38.583 41.56-38.583l-0.503-233.3c0 0 241.645 0 279.599 0 31.411 0 29.985 31.537 29.985 31.537v431.497l-394.047 350.515-418.329-350.515c0 0 0-438.794 0-438.794zM0 429.679c0 0 35.521-65.465 112.98 0l462.909 391.614 434.013-389.182c89.663-64.668 123.255 0 123.255 0l-557.268 504.804-575.889-507.237zM999.376 822.216h-111.638l0.461-135.375 111.177-94.318z" />
<glyph unicode="&#xe917;" glyph-name="log_out" horiz-adv-x="961" d="M765.674 301.668v127.399h-318.5v127.4h318.5v127.401l191.1-191.1-191.1-191.1zM701.973 365.367v-254.799h-318.499v-191.1l-382.2 191.1v828.099h700.7v-318.5h-63.701v254.801h-509.6l254.801-127.401v-573.3h254.799v191.1h63.699z" />
<glyph unicode="&#xe918;" glyph-name="prescription" horiz-adv-x="703" d="M666.314 764.354c-1.523 1.745-3.115 3.449-4.767 5.104l-138.961 139.122c-0.057 0.057-0.114 0.114-0.167 0.167-6.713 6.688-18.202 1.731-18.202-7.742v-143.846c0-5.993 4.856-10.849 10.847-10.849h143.11c9.346 0 14.284 11 8.14 18.044zM680.711 672.222h-215.23c-20.433 0-36.34 16.696-35.349 37.106 0 0.020-0.002 0.041-0.002 0.061v218.431c0 5.991-4.856 10.847-10.847 10.847h-350.203c-37.594 0-68.067-30.473-68.067-68.065v-871.248c0-37.594 30.473-68.065 68.065-68.065h554.415c37.59 0 68.065 30.473 68.065 68.065v662.021c-0.002 5.989-4.856 10.847-10.847 10.847zM173.247 699.364h54.487v53.686c0 20.458 16.586 37.045 37.045 37.045s37.045-16.586 37.045-37.045v-53.684h54.491c20.458 0 37.045-16.586 37.045-37.045s-16.586-37.045-37.045-37.045h-54.487v-55.296c0-20.458-16.586-37.045-37.045-37.045s-37.045 16.586-37.045 37.045v55.296h-54.487c-20.458 0-37.045 16.586-37.045 37.045s16.582 37.043 37.041 37.043zM520.27 113.803h-347.984c-20.458 0-37.045 16.586-37.045 37.045s16.586 37.045 37.045 37.045h347.984c20.458 0 37.045-16.586 37.045-37.045s-16.586-37.045-37.045-37.045zM520.278 242.358h-347.984c-20.458 0-37.045 16.586-37.045 37.045s16.586 37.045 37.045 37.045h347.982c20.458 0 37.045-16.586 37.045-37.045s-16.584-37.045-37.043-37.045zM520.278 370.778h-347.984c-20.458 0-37.045 16.586-37.045 37.045s16.586 37.045 37.045 37.045h347.982c20.458 0 37.045-16.586 37.045-37.045s-16.584-37.045-37.043-37.045z" />
<glyph unicode="&#xe919;" glyph-name="profile" d="M501.889 938.667c-277.181 0-501.886-224.712-501.886-501.893 0-277.174 224.705-501.903 501.886-501.903s501.903 224.729 501.903 501.903c0 277.188-224.722 501.893-501.903 501.893zM503.419 199.99v0.007h-217.451c0 156.781 137.695 156.744 168.251 197.74l3.497 18.694c-42.929 21.756-73.234 74.208-73.234 135.554 0 80.82 52.573 146.348 117.408 146.348s117.408-65.528 117.408-146.348c0-60.824-29.766-112.948-72.123-135.049l3.982-21.244c33.524-39.008 166.638-41.551 166.638-195.702h-214.376z" />
<glyph unicode="&#xe91a;" glyph-name="settings" d="M1013.491 486.769c-1.608 14.291-18.271 25.031-32.68 25.031-46.585 0-87.924 27.354-105.26 69.657-17.711 43.328-6.291 93.859 28.428 125.707 10.929 9.99 12.256 26.714 3.091 38.331-23.843 30.278-50.943 57.627-80.532 81.33-11.587 9.298-28.587 8.004-38.634-3.121-30.3-33.557-84.727-46.029-126.785-28.481-43.767 18.411-71.367 62.761-68.666 110.367 0.889 14.953-10.040 27.955-24.948 29.691-37.972 4.392-76.277 4.528-114.362 0.303-14.738-1.627-25.666-14.322-25.171-29.086 1.657-47.138-26.275-90.712-69.607-108.461-41.554-16.973-95.599-4.607-125.839 28.651-9.994 10.955-26.718 12.302-38.361 3.227-30.467-23.904-58.176-51.276-82.238-81.304-9.385-11.674-8.004-28.594 3.034-38.638 35.381-32.040 46.805-83.010 28.424-126.838-17.548-41.785-60.937-68.715-110.609-68.715-16.119 0.518-27.599-10.301-29.362-24.955-4.471-38.191-4.524-77.105-0.219-115.606 1.596-14.352 18.767-24.997 33.334-24.997 44.266 1.131 86.766-26.275 104.595-69.66 17.772-43.328 6.348-93.829-28.424-125.703-10.876-9.99-12.256-26.688-3.091-38.305 23.62-30.085 50.724-57.461 80.419-81.361 11.647-9.385 28.594-8.061 38.691 3.064 30.414 33.641 84.837 46.090 126.728 28.507 43.877-18.354 71.476-62.7 68.775-110.333-0.881-14.961 10.1-27.985 24.948-29.695 19.425-2.266 38.967-3.397 58.562-3.397 18.6 0 37.204 1.021 55.804 3.091 14.742 1.627 25.663 14.322 25.167 29.113-1.706 47.111 26.275 90.685 69.551 108.404 41.834 17.087 95.652 4.581 125.896-28.643 10.051-10.932 26.657-12.253 38.365-3.208 30.41 23.847 58.062 51.197 82.238 81.308 9.381 11.647 8.057 28.594-3.038 38.634-35.381 32.040-46.861 83.018-28.481 126.815 17.28 41.229 59.057 68.911 103.993 68.911l6.287-0.163c14.575-1.184 27.985 10.043 29.752 24.921 4.479 38.225 4.532 77.105 0.227 115.606zM509.147 259.687c-93.504 0-169.561 76.057-169.561 169.561 0 93.5 76.057 169.561 169.561 169.561 93.5 0 169.557-76.061 169.557-169.561 0-93.504-76.057-169.561-169.557-169.561z" />
<glyph unicode="&#xe91b;" glyph-name="status" d="M503.936 938.667c-278.311 0-503.932-225.638-503.932-503.939s225.621-503.959 503.932-503.959c278.311 0 503.959 225.645 503.959 503.959s-225.648 503.939-503.959 503.939zM503.946 156.030c-36.17 0-65.51 29.313-65.51 65.51h131.010c0.007-36.197-29.33-65.51-65.5-65.51zM725.314 287.229l-0.017 0.003c0-24.223-19.631-25.819-43.837-25.819h-355.036c-24.216 0-43.83 1.596-43.83 25.819v4.173c0 17.42 10.23 32.337 24.929 39.412l13.916 120.118c0 87.936 62.187 161.331 144.976 178.647v46.632c0 20.729 16.808 37.537 37.548 37.537 20.729 0 37.538-16.808 37.538-37.537v-46.635c82.789-17.312 144.976-90.701 144.976-178.647l13.916-120.135c14.699-7.086 24.922-21.976 24.922-39.395v-4.173z" />
<glyph unicode="&#xe91c;" glyph-name="about_us" horiz-adv-x="455" d="M432.596 40.896l-14.061-57.482c-42.184-16.65-75.882-29.323-100.974-38.035-25.119-8.74-54.307-13.087-87.562-13.087-51.069 0-90.791 12.51-119.121 37.359-28.33 24.948-42.5 56.562-42.5 94.913 0 14.846 1.028 30.116 3.166 45.675 2.156 15.577 5.583 33.12 10.273 52.728l52.719 186.597c4.69 17.868 8.677 34.797 11.87 50.807 3.238 15.911 4.798 30.549 4.798 43.727 0 23.83-4.934 40.498-14.756 49.869-9.822 9.344-28.565 14.089-56.39 14.089-13.629 0-27.636-2.183-41.914-6.404-14.341-4.239-26.599-8.334-36.89-12.14l14.098 57.527c34.536 14.061 67.547 26.103 99.125 36.096 31.577 10.021 61.414 15.036 89.636 15.036 50.717 0 89.853-12.258 117.335-36.773 27.483-24.533 41.219-56.336 41.219-95.526 0-8.109-0.902-22.396-2.841-42.816-1.894-20.465-5.421-39.217-10.562-56.273l-52.494-185.848c-4.302-14.927-8.172-31.992-11.536-51.195-3.473-19.076-5.132-33.652-5.132-43.429 0-24.678 5.502-41.526 16.533-50.482 11.112-8.956 30.252-13.412 57.437-13.412 12.763 0 27.284 2.264 43.42 6.711 16.091 4.447 27.825 8.352 35.104 11.771zM445.909 821.142c0-32.38-12.203-60.034-36.728-82.772-24.461-22.819-53.937-34.238-88.419-34.238-34.59 0-64.138 11.419-88.879 34.238-24.696 22.747-37.070 50.392-37.070 82.772 0 32.317 12.375 60.016 37.070 83.043 24.696 22.991 54.298 34.482 88.879 34.482 34.473 0 63.958-11.518 88.419-34.482 24.542-23.027 36.728-50.735 36.728-83.043z" />
<glyph unicode="&#xe91d;" glyph-name="tnc" horiz-adv-x="853" d="M489.245 514.343c-17.689 0-32.718 6.184-45.091 18.562-12.378 12.371-18.56 27.4-18.56 45.084v360.678h-360.68c-17.677 0-32.707-6.184-45.082-18.562-12.378-12.371-18.564-27.4-18.564-45.084v-891.097c0-17.689 6.187-32.718 18.564-45.091 12.378-12.366 27.405-18.557 45.084-18.557h721.372c17.675 0 32.695 6.191 45.068 18.557 12.373 12.382 18.564 27.403 18.564 45.091v530.419h-360.676zM680.191 111.223c0-6.182-1.986-11.27-5.959-15.241s-9.059-5.961-15.243-5.961h-466.775c-6.184 0-11.27 1.988-15.25 5.961-3.969 3.973-5.964 9.059-5.964 15.241v42.437c0 6.198 1.988 11.284 5.964 15.257 3.983 3.957 9.068 5.959 15.25 5.959h466.775c6.184 0 11.272-2.002 15.243-5.959 3.973-3.973 5.959-9.059 5.959-15.257v-42.437zM680.191 280.96c0-6.2-1.986-11.27-5.959-15.26-3.973-3.964-9.059-5.959-15.243-5.959h-466.775c-6.184 0-11.27 1.995-15.25 5.959-3.969 3.992-5.964 9.059-5.964 15.26v42.437c0 6.182 1.988 11.27 5.964 15.241 3.983 3.973 9.068 5.959 15.25 5.959h466.775c6.184 0 11.272-1.986 15.243-5.959s5.959-9.059 5.959-15.241v-42.437zM804.85 686.718l-206.863 206.87c-22.11 22.101-51.292 36.473-87.531 43.097v-337.481h337.485c-6.63 36.255-21.005 65.423-43.092 87.515z" />
<glyph unicode="&#xe91e;" glyph-name="add" d="M957.475 503.094h-380.633v380.636c0 17.34-23.545 54.937-70.634 54.937s-70.634-37.6-70.634-54.937v-380.638h-380.636c-17.337 0.002-54.937-23.543-54.937-70.63s37.6-70.634 54.937-70.634h380.638v-380.638c0-17.335 23.543-54.937 70.634-54.937s70.634 37.602 70.634 54.937v380.638h380.638c17.335 0 54.937 23.543 54.937 70.634s-37.606 70.632-54.943 70.632z" />
<glyph unicode="&#xe91f;" glyph-name="instagram" d="M512 867.8c136.8 0 153-0.6 206.8-3 50-2.2 77-10.6 95-17.6 23.8-9.2 41-20.4 58.8-38.2 18-18 29-35 38.4-58.8 7-18 15.4-45.2 17.6-95 2.4-54 3-70.2 3-206.8s-0.6-153-3-206.8c-2.2-50-10.6-77-17.6-95-9.2-23.8-20.4-41-38.2-58.8-18-18-35-29-58.8-38.4-18-7-45.2-15.4-95-17.6-54-2.4-70.2-3-206.8-3s-153 0.6-206.8 3c-50 2.2-77 10.6-95 17.6-23.8 9.2-41 20.4-58.8 38.2-18 18-29 35-38.4 58.8-7 18-15.4 45.2-17.6 95-2.4 54-3 70.2-3 206.8s0.6 153 3 206.8c2.2 50 10.6 77 17.6 95 9.2 23.8 20.4 41 38.2 58.8 18 18 35 29 58.8 38.4 18 7 45.2 15.4 95 17.6 53.8 2.4 70 3 206.8 3zM512 960c-139 0-156.4-0.6-211-3-54.4-2.4-91.8-11.2-124.2-23.8-33.8-13.2-62.4-30.6-90.8-59.2-28.6-28.4-46-57-59.2-90.6-12.6-32.6-21.4-69.8-23.8-124.2-2.4-54.8-3-72.2-3-211.2s0.6-156.4 3-211c2.4-54.4 11.2-91.8 23.8-124.2 13.2-33.8 30.6-62.4 59.2-90.8 28.4-28.4 57-46 90.6-59 32.6-12.6 69.8-21.4 124.2-23.8 54.6-2.4 72-3 211-3s156.4 0.6 211 3c54.4 2.4 91.8 11.2 124.2 23.8 33.6 13 62.2 30.6 90.6 59s46 57 59 90.6c12.6 32.6 21.4 69.8 23.8 124.2 2.4 54.6 3 72 3 211s-0.6 156.4-3 211c-2.4 54.4-11.2 91.8-23.8 124.2-12.6 34-30 62.6-58.6 91-28.4 28.4-57 46-90.6 59-32.6 12.6-69.8 21.4-124.2 23.8-54.8 2.6-72.2 3.2-211.2 3.2v0zM512 711c-145.2 0-263-117.8-263-263s117.8-263 263-263 263 117.8 263 263c0 145.2-117.8 263-263 263zM512 277.4c-94.2 0-170.6 76.4-170.6 170.6s76.4 170.6 170.6 170.6c94.2 0 170.6-76.4 170.6-170.6s-76.4-170.6-170.6-170.6zM846.8 721.4c0-33.91-27.49-61.4-61.4-61.4s-61.4 27.49-61.4 61.4c0 33.91 27.49 61.4 61.4 61.4s61.4-27.49 61.4-61.4z" />
<glyph unicode="&#xe920;" glyph-name="twitter, brand2" d="M1024 733.6c-37.6-16.8-78.2-28-120.6-33 43.4 26 76.6 67.2 92.4 116.2-40.6-24-85.6-41.6-133.4-51-38.4 40.8-93 66.2-153.4 66.2-116 0-210-94-210-210 0-16.4 1.8-32.4 5.4-47.8-174.6 8.8-329.4 92.4-433 219.6-18-31-28.4-67.2-28.4-105.6 0-72.8 37-137.2 93.4-174.8-34.4 1-66.8 10.6-95.2 26.2 0-0.8 0-1.8 0-2.6 0-101.8 72.4-186.8 168.6-206-17.6-4.8-36.2-7.4-55.4-7.4-13.6 0-26.6 1.4-39.6 3.8 26.8-83.4 104.4-144.2 196.2-146-72-56.4-162.4-90-261-90-17 0-33.6 1-50.2 3 93.2-59.8 203.6-94.4 322.2-94.4 386.4 0 597.8 320.2 597.8 597.8 0 9.2-0.2 18.2-0.6 27.2 41 29.4 76.6 66.4 104.8 108.6z" />
<glyph unicode="&#xe921;" glyph-name="end-call" d="M1005.44 432.341c-133.888 126.89-309.162 196.778-493.44 196.778s-359.552-69.886-493.866-197.162c-11.734-11.69-18.134-27.348-18.134-44.116 0-16.896 6.742-32.982 18.134-43.69l101.376-101.418c23.424-23.338 65.494-22.656 87.254-0.982 31.702 29.354 66.646 53.632 103.552 72.106 22.87 11.050 31.018 38.102 31.018 59.69v112.042c54.4 14.634 116.266 15.958 170.666 15.958 57.642 0 117.93-1.322 170.666-15.83v-112.17c0-28.33 11.434-50.774 30.378-59.99 38.57-19.286 73.642-43.52 104.064-72.064 11.606-10.966 27.392-17.28 43.264-17.28 16.768 0 32.426 6.4 44.118 18.090l101.376 101.376c11.69 11.69 18.134 27.35 18.134 44.16 0 16.77-6.4 32.428-18.56 44.502z" />
<glyph unicode="&#xe922;" glyph-name="delete" d="M846.89 818.092h-136.723v88.846c0 17.883-14.425 31.729-32.307 31.729-1.735 0-2.892-0.579-3.457-1.157-0.579 0.578-1.736 1.157-2.314 1.157h-325.95c-17.882 0-31.728-13.846-31.728-31.729v-88.847h-137.301c-39.236 0-69.808-30.572-69.808-69.808v-114.225h60.576v-650.162c0-39.237 29.994-69.23 69.23-69.23h549.785c39.236 0 69.806 29.993 69.806 69.23v650.162h59.998v114.225c0 39.236-30.584 69.809-69.808 69.809zM377.868 875.21h268.265v-57.118h-268.265v57.118zM792.665-16.106c0-4.048-1.735-5.77-5.772-5.77h-549.785c-4.036 0-5.772 1.723-5.772 5.77v650.165h561.328v-650.165zM852.663 697.516h-681.326v50.768c0 4.038 1.735 6.351 5.772 6.351h669.782c4.038 0 5.773-2.313 5.773-6.351v-50.768zM628.249 559.635h64.035v-524.973h-64.035v524.973zM480.561 559.635h64.035v-524.973h-64.035v524.973zM332.871 559.635h64.035v-524.973h-64.035v524.973z" />
<glyph unicode="&#xe923;" glyph-name="arrow-right" horiz-adv-x="614" d="M407.962 426.872l-391.27-383.078c-10.752-10.547-16.691-24.576-16.691-39.578 0-15.053 5.939-29.082 16.691-39.629l34.304-33.536c10.752-10.598 25.088-16.384 40.448-16.384s29.696 5.786 40.448 16.384l465.818 456.090c10.803 10.547 16.742 24.678 16.691 39.731 0 15.053-5.888 29.184-16.691 39.782l-465.408 455.629c-10.334 10.132-24.504 16.385-40.133 16.385-0.111 0-0.221 0-0.332-0.001h0.017c-15.36 0-29.696-5.786-40.448-16.384l-34.304-33.536c-10.31-10.054-16.705-24.082-16.705-39.603s6.395-29.549 16.694-39.592l0.011-0.011 390.861-382.669z" />
<glyph unicode="&#xe924;" glyph-name="share" horiz-adv-x="929" d="M774.239 214.832c-39.196 0-74.278-15.322-101.016-39.462l-368.128 213.239c2.655 11.814 4.722 23.723 4.722 36.030 0 12.269-2.086 24.14-4.722 35.992l363.975 211.247c27.762-25.6 64.474-41.605 105.169-41.605 85.807 0 154.946 68.741 154.946 154.207 0 85.276-69.196 154.188-154.946 154.188-85.637 0-154.833-68.911-154.833-154.169 0-12.44 2.105-24.14 4.722-35.992l-363.956-211.418c-27.819 25.733-64.474 41.681-105.225 41.681-85.807 0-154.946-68.855-154.946-154.15s69.139-154.188 154.946-154.188c40.695 0 77.407 15.986 105.169 41.586l367.483-213.713c-2.515-10.035-4.009-21.581-4.114-33.457v-0.069c0-82.773 67.717-150.111 150.699-150.111 83.058 0 150.85 67.281 150.85 150.111 0 82.811-67.736 150.054-150.793 150.054z" />
<glyph unicode="&#xe925;" glyph-name="heart" horiz-adv-x="1220" d="M1148.95 818.576c-181.597 232.666-538.907 95.385-538.907-140.898 0 236.283-357.332 373.564-538.929 140.898-187.632-240.531-2.658-661.853 538.951-903.909 541.565 242.056 726.539 663.378 538.885 903.909z" />
<glyph unicode="&#xea0a;" glyph-name="plus" d="M992 576h-352v352c0 17.672-14.328 32-32 32h-192c-17.672 0-32-14.328-32-32v-352h-352c-17.672 0-32-14.328-32-32v-192c0-17.672 14.328-32 32-32h352v-352c0-17.672 14.328-32 32-32h192c17.672 0 32 14.328 32 32v352h352c17.672 0 32 14.328 32 32v192c0 17.672-14.328 32-32 32z" />
<glyph unicode="&#xea0b;" glyph-name="minus" d="M0 544v-192c0-17.672 14.328-32 32-32h960c17.672 0 32 14.328 32 32v192c0 17.672-14.328 32-32 32h-960c-17.672 0-32-14.328-32-32z" />
</font>
</defs>
</svg>
